{
    "asset" : {
        "generator" : "Khronos glTF Blender I/O v1.1.46",
        "version" : "2.0"
    },
    "scene" : 0,
    "scenes" : [
        {
            "name" : "Scene",
            "nodes" : [
                0,
                1,
                2
            ]
        }
    ],
    "nodes" : [
        {
            "name" : "Light",
            "rotation" : [
                0.16907575726509094,
                0.7558803558349609,
                -0.27217137813568115,
                0.570947527885437
            ],
            "translation" : [
                4.076245307922363,
                5.903861999511719,
                -1.0054539442062378
            ]
        },
        {
            "name" : "Camera",
            "rotation" : [
                0.483536034822464,
                0.33687159419059753,
                -0.20870360732078552,
                0.7804827094078064
            ],
            "translation" : [
                7.358891487121582,
                4.958309173583984,
                6.925790786743164
            ]
        },
        {
            "mesh" : 0,
            "name" : "bunny_outward_2:bunny_no_uv_polySurface1 bunny_outward_2:polySu",
            "rotation" : [
                0,
                0.7071068286895752,
                -0.7071067094802856,
                -3.0908616110991716e-08
            ]
        }
    ],
    "materials" : [
        {
            "emissiveFactor" : [
                0,
                0,
                0
            ],
            "name" : "initialShadingGroup",
            "pbrMetallicRoughness" : {
                "baseColorFactor" : [
                    0.5,
                    0.5,
                    0.5,
                    1
                ],
                "metallicFactor" : 0,
                "roughnessFactor" : 1
            }
        }
    ],
    "meshes" : [
        {
            "name" : "bunny_outward_2:bunny_no_uv_polySurface1 bunny_outward_2:polySu",
            "primitives" : [
                {
                    "attributes" : {
                        "POSITION" : 0,
                        "NORMAL" : 1,
                        "TEXCOORD_0" : 2
                    },
                    "indices" : 3,
                    "material" : 0
                }
            ]
        }
    ],
    "accessors" : [
        {
            "bufferView" : 0,
            "componentType" : 5126,
            "count" : 208992,
            "max" : [
                0.7780900001525879,
                0.6029999852180481,
                0.6701300144195557
            ],
            "min" : [
                -0.7789000272750854,
                -0.6037399768829346,
                -0.8732100129127502
            ],
            "type" : "VEC3"
        },
        {
            "bufferView" : 1,
            "componentType" : 5126,
            "count" : 208992,
            "type" : "VEC3"
        },
        {
            "bufferView" : 2,
            "componentType" : 5126,
            "count" : 208992,
            "type" : "VEC2"
        },
        {
            "bufferView" : 3,
            "componentType" : 5125,
            "count" : 208992,
            "type" : "SCALAR"
        }
    ],
    "bufferViews" : [
        {
            "buffer" : 0,
            "byteLength" : 2507904,
            "byteOffset" : 0
        },
        {
            "buffer" : 0,
            "byteLength" : 2507904,
            "byteOffset" : 2507904
        },
        {
            "buffer" : 0,
            "byteLength" : 1671936,
            "byteOffset" : 5015808
        },
        {
            "buffer" : 0,
            "byteLength" : 835968,
            "byteOffset" : 6687744
        }
    ],
    "buffers" : [
        {
            "byteLength" : 7523712,
            "uri" : "bunny_uv_2.bin"
        }
    ]
}
